<svg width="249" height="28" viewBox="0 0 249 28" fill="none" xmlns="http://www.w3.org/2000/svg">
<path d="M202.224 20.1787C201.762 20.1787 201.45 19.8672 201.45 19.4106V11.2627C201.45 10.8062 201.762 10.5 202.224 10.5H203.4C203.862 10.5 204.168 10.8062 204.168 11.2627V19.4106C204.168 19.8672 203.862 20.1787 203.4 20.1787H202.224ZM198.072 20.1787C197.61 20.1787 197.298 19.8672 197.298 19.4106V13.4595C197.298 13.0029 197.61 12.6914 198.072 12.6914H199.248C199.71 12.6914 200.021 13.0029 200.021 13.4595V19.4106C200.021 19.8672 199.71 20.1787 199.248 20.1787H198.072ZM193.925 20.1787C193.463 20.1787 193.152 19.8672 193.152 19.4106V15.4629C193.152 15.0063 193.463 14.7002 193.925 14.7002H195.096C195.558 14.7002 195.87 15.0063 195.87 15.4629V19.4106C195.87 19.8672 195.558 20.1787 195.096 20.1787H193.925ZM189.773 20.1787C189.312 20.1787 189 19.8672 189 19.4106V17.1387C189 16.6821 189.312 16.376 189.773 16.376H190.95C191.412 16.376 191.723 16.6821 191.723 17.1387V19.4106C191.723 19.8672 191.412 20.1787 190.95 20.1787H189.773Z" fill="black"/>
<path d="M210.113 14.2715L209.287 13.4277C209.164 13.2988 209.158 13.1348 209.264 13.0117C210.688 11.248 213.348 10 216.084 10C218.815 10 221.475 11.248 222.904 13.0117C223.004 13.1348 223.004 13.2988 222.881 13.4277L222.049 14.2598C221.914 14.3945 221.715 14.4004 221.586 14.2715C220.139 12.7305 218.229 11.916 216.084 11.916C213.951 11.916 212.047 12.7246 210.594 14.2598C210.459 14.4062 210.248 14.4121 210.113 14.2715ZM212.574 16.7031L211.649 15.7949C211.52 15.6777 211.514 15.5254 211.619 15.3965C212.551 14.2832 214.244 13.4922 216.084 13.4922C217.924 13.4922 219.611 14.2832 220.543 15.3965C220.649 15.5254 220.637 15.6836 220.52 15.7949L219.588 16.7031C219.442 16.8379 219.254 16.8496 219.125 16.7031C218.387 15.9121 217.244 15.3613 216.084 15.3672C214.936 15.3613 213.793 15.9004 213.067 16.6797C212.926 16.832 212.727 16.8496 212.574 16.7031ZM216.084 19.9844C215.932 19.9844 215.803 19.9141 215.563 19.6855L214.115 18.291C214.01 18.1855 213.969 18.0449 214.045 17.9277C214.473 17.3594 215.24 16.9199 216.084 16.9199C216.91 16.9199 217.66 17.3359 218.088 17.8809C218.193 18.0039 218.17 18.1797 218.053 18.291L216.606 19.6855C216.365 19.9141 216.236 19.9844 216.084 19.9844Z" fill="black"/>
<path d="M232.021 20.1826C230.716 20.1826 229.752 20.0254 229.041 19.3213C228.337 18.6172 228.187 17.6602 228.187 16.3477V14.2012C228.187 12.9092 228.337 11.9521 229.041 11.248C229.745 10.5439 230.723 10.3867 232.008 10.3867H237.326L236.082 11.9043H231.844C231.119 11.9043 230.511 12 230.155 12.3623C229.8 12.7178 229.711 13.3125 229.711 14.0371V16.5391C229.711 17.2568 229.8 17.8516 230.155 18.207C230.511 18.5557 231.119 18.6582 231.83 18.6582H235.036C234.763 19.3828 234.708 19.7246 234.954 20.1826H232.021ZM237.613 20.1826L238.857 18.6582H242.911C243.622 18.6582 244.23 18.5625 244.586 18.207C244.941 17.8447 245.03 17.2568 245.03 16.5391V14.0234C245.03 13.3125 244.941 12.7178 244.586 12.3623C244.23 12.0068 243.622 11.9043 242.911 11.9043H239.91C240.177 11.1729 240.225 10.8242 239.985 10.3867H242.72C244.025 10.3867 244.989 10.5371 245.7 11.248C246.411 11.9521 246.555 12.9092 246.555 14.2148V16.3477C246.555 17.6602 246.411 18.6104 245.7 19.3213C244.996 20.0254 244.025 20.1826 242.72 20.1826H237.613ZM234.407 15.8076C234.407 15.6982 234.455 15.5957 234.537 15.4932L238.386 10.749C238.721 10.332 239.268 10.626 239.076 11.1387L237.853 14.4062H240.156C240.368 14.4062 240.539 14.5566 240.539 14.7617C240.539 14.8643 240.484 14.9736 240.409 15.0693L236.561 19.8203C236.226 20.2305 235.672 19.9365 235.863 19.4307L237.094 16.1631H234.783C234.578 16.1631 234.407 16.0127 234.407 15.8076ZM231.639 17.749C231.249 17.749 231.017 17.6943 230.846 17.5303C230.682 17.3662 230.62 17.1338 230.62 16.7373V13.8389C230.62 13.4355 230.682 13.2031 230.846 13.0391C231.01 12.875 231.249 12.8135 231.652 12.8135H235.344L233.717 14.8438C233.498 15.1104 233.361 15.4521 233.361 15.8076C233.361 16.4502 233.826 16.9629 234.414 17.0586H235.091L234.838 17.749H231.639ZM239.603 17.749L241.229 15.7256C241.448 15.4521 241.585 15.1104 241.585 14.7617C241.585 14.1191 241.12 13.6064 240.532 13.5107H239.849L240.108 12.8135H243.109C243.499 12.8135 243.738 12.875 243.902 13.0391C244.066 13.2031 244.128 13.4355 244.128 13.8252V16.7373C244.128 17.127 244.066 17.3662 243.902 17.5303C243.738 17.6943 243.506 17.749 243.109 17.749H239.603ZM247.601 17.2021V13.3604C248.188 13.4014 248.975 14.1533 248.975 15.2812C248.975 16.416 248.188 17.168 247.601 17.2021Z" fill="black"/>
<path d="M229.041 19.3213C229.752 20.0254 230.716 20.1826 232.021 20.1826H234.954C234.708 19.7246 234.763 19.3828 235.036 18.6582H231.83C231.119 18.6582 230.511 18.5557 230.155 18.207C229.8 17.8516 229.711 17.2568 229.711 16.5391V14.0371C229.711 13.3125 229.8 12.7178 230.155 12.3623C230.511 12 231.119 11.9043 231.844 11.9043H236.082L237.326 10.3867H232.008C230.723 10.3867 229.745 10.5439 229.041 11.248C228.337 11.9521 228.187 12.9092 228.187 14.2012V16.3477C228.187 17.6602 228.337 18.6172 229.041 19.3213Z" fill="#B7B7B7"/>
<path d="M238.857 18.6582L237.613 20.1826H242.72C244.025 20.1826 244.996 20.0254 245.7 19.3213C246.411 18.6104 246.555 17.6602 246.555 16.3477V14.2148C246.555 12.9092 246.411 11.9521 245.7 11.248C244.989 10.5371 244.025 10.3867 242.72 10.3867H239.985C240.225 10.8242 240.177 11.1729 239.91 11.9043H242.911C243.622 11.9043 244.23 12.0068 244.586 12.3623C244.941 12.7178 245.03 13.3125 245.03 14.0234V16.5391C245.03 17.2568 244.941 17.8447 244.586 18.207C244.23 18.5625 243.622 18.6582 242.911 18.6582H238.857Z" fill="#B7B7B7"/>
<path d="M230.846 17.5303C231.017 17.6943 231.249 17.749 231.639 17.749H234.838L235.091 17.0586H234.414C233.826 16.9629 233.361 16.4502 233.361 15.8076C233.361 15.4521 233.498 15.1104 233.717 14.8438L235.344 12.8135H231.652C231.249 12.8135 231.01 12.875 230.846 13.0391C230.682 13.2031 230.62 13.4355 230.62 13.8389V16.7373C230.62 17.1338 230.682 17.3662 230.846 17.5303Z" fill="#B7B7B7"/>
<path d="M241.229 15.7256L239.603 17.749H243.109C243.506 17.749 243.738 17.6943 243.902 17.5303C244.066 17.3662 244.128 17.127 244.128 16.7373V13.8252C244.128 13.4355 244.066 13.2031 243.902 13.0391C243.738 12.875 243.499 12.8135 243.109 12.8135H240.108L239.849 13.5107H240.532C241.12 13.6064 241.585 14.1191 241.585 14.7617C241.585 15.1104 241.448 15.4521 241.229 15.7256Z" fill="#B7B7B7"/>
<path d="M247.601 13.3604V17.2021C248.188 17.168 248.975 16.416 248.975 15.2812C248.975 14.1533 248.188 13.4014 247.601 13.3604Z" fill="#B7B7B7"/>
<path d="M230.846 17.5303C231.017 17.6943 231.249 17.749 231.639 17.749H234.838L235.091 17.0586H234.414C233.826 16.9629 233.361 16.4502 233.361 15.8076C233.361 15.4521 233.498 15.1104 233.717 14.8438L235.344 12.8135H231.652C231.249 12.8135 231.01 12.875 230.846 13.0391C230.682 13.2031 230.62 13.4355 230.62 13.8389V16.7373C230.62 17.1338 230.682 17.3662 230.846 17.5303Z" fill="#5CC267"/>
<path d="M241.229 15.7256L239.603 17.749H243.109C243.506 17.749 243.738 17.6943 243.902 17.5303C244.066 17.3662 244.128 17.127 244.128 16.7373V13.8252C244.128 13.4355 244.066 13.2031 243.902 13.0391C243.738 12.875 243.499 12.8135 243.109 12.8135H240.108L239.849 13.5107H240.532C241.12 13.6064 241.585 14.1191 241.585 14.7617C241.585 15.1104 241.448 15.4521 241.229 15.7256Z" fill="#5CC267"/>
<rect x="74" width="96" height="28" rx="14" fill="black"/>
<path d="M2.39307 19.8882V12.3408H2.27881L0 13.9468V12.4106L2.39307 10.7285H4.02441V19.8882H2.39307Z" fill="black"/>
<path d="M10.0674 20.1167C9.58073 20.1167 9.11735 20.0278 8.67725 19.8501C8.23714 19.6681 7.8457 19.3888 7.50293 19.0122C7.16439 18.6313 6.89779 18.1468 6.70312 17.5586C6.50846 16.9661 6.41113 16.2552 6.41113 15.4258V15.4131C6.41113 14.3848 6.55924 13.5046 6.85547 12.7725C7.15169 12.0361 7.57487 11.4733 8.125 11.084C8.67936 10.6947 9.33952 10.5 10.1055 10.5C10.6641 10.5 11.1698 10.6037 11.6226 10.811C12.0754 11.0142 12.4499 11.2956 12.7461 11.6553C13.0423 12.015 13.2391 12.4297 13.3364 12.8994L13.3491 12.9692H11.7432L11.7178 12.9058C11.6374 12.6899 11.521 12.5037 11.3687 12.3472C11.2205 12.1864 11.0386 12.0636 10.8228 11.979C10.6112 11.8901 10.3721 11.8457 10.1055 11.8457C9.61882 11.8457 9.22103 11.9896 8.91211 12.2773C8.60742 12.5609 8.37891 12.9417 8.22656 13.4199C8.07845 13.8981 7.9917 14.4313 7.96631 15.0195C7.96208 15.0788 7.95996 15.1401 7.95996 15.2036C7.95996 15.2629 7.95996 15.3242 7.95996 15.3877L8.24561 16.9175C8.24561 17.2645 8.32601 17.5798 8.48682 17.8633C8.64762 18.1468 8.86556 18.3711 9.14062 18.5361C9.41569 18.7012 9.72038 18.7837 10.0547 18.7837C10.3932 18.7837 10.7 18.7033 10.9751 18.5425C11.2502 18.3774 11.4681 18.1574 11.6289 17.8823C11.7897 17.603 11.8701 17.2941 11.8701 16.9556V16.9429C11.8701 16.5874 11.7918 16.2743 11.6353 16.0034C11.4829 15.7284 11.2713 15.5125 11.0005 15.356C10.7297 15.1994 10.4207 15.1211 10.0737 15.1211C9.73096 15.1211 9.41992 15.1973 9.14062 15.3496C8.86556 15.502 8.64762 15.7135 8.48682 15.9844C8.32601 16.2552 8.24561 16.562 8.24561 16.9048V16.9175H7.86475V15.229H8.08691C8.20117 14.9878 8.3641 14.7635 8.57568 14.5562C8.7915 14.3488 9.05811 14.1816 9.37549 14.0547C9.69287 13.9277 10.0589 13.8643 10.4736 13.8643C11.0618 13.8643 11.5802 13.9954 12.0288 14.2578C12.4816 14.5202 12.835 14.8799 13.0889 15.3369C13.3428 15.7897 13.4697 16.306 13.4697 16.8857V16.8984C13.4697 17.5205 13.3237 18.0728 13.0317 18.5552C12.7397 19.0376 12.3377 19.4185 11.8257 19.6978C11.3179 19.9771 10.7318 20.1167 10.0674 20.1167Z" fill="black"/>
<path d="M16.4214 18.6567C16.1336 18.6567 15.8924 18.5615 15.6978 18.3711C15.5073 18.1764 15.4121 17.9395 15.4121 17.6602C15.4121 17.3766 15.5073 17.1396 15.6978 16.9492C15.8924 16.7546 16.1336 16.6572 16.4214 16.6572C16.7134 16.6572 16.9546 16.7546 17.145 16.9492C17.3354 17.1396 17.4307 17.3766 17.4307 17.6602C17.4307 17.9395 17.3354 18.1764 17.145 18.3711C16.9546 18.5615 16.7134 18.6567 16.4214 18.6567ZM16.4214 13.9468C16.1336 13.9468 15.8924 13.8516 15.6978 13.6611C15.5073 13.4665 15.4121 13.2295 15.4121 12.9502C15.4121 12.6667 15.5073 12.4297 15.6978 12.2393C15.8924 12.0446 16.1336 11.9473 16.4214 11.9473C16.7134 11.9473 16.9546 12.0446 17.145 12.2393C17.3354 12.4297 17.4307 12.6667 17.4307 12.9502C17.4307 13.2295 17.3354 13.4665 17.145 13.6611C16.9546 13.8516 16.7134 13.9468 16.4214 13.9468Z" fill="black"/>
<path d="M21.7661 19.8882V12.3408H21.6519L19.373 13.9468V12.4106L21.7661 10.7285H23.3975V19.8882H21.7661Z" fill="black"/>
<path d="M29.1865 10.5C29.6774 10.5 30.1429 10.591 30.583 10.7729C31.0231 10.9507 31.4124 11.23 31.751 11.6108C32.0938 11.9875 32.3625 12.472 32.5571 13.0645C32.7518 13.6527 32.8491 14.3615 32.8491 15.1909V15.2036C32.8491 16.2319 32.701 17.1121 32.4048 17.8442C32.1086 18.5763 31.6833 19.1392 31.1289 19.5327C30.5788 19.922 29.9207 20.1167 29.1548 20.1167C28.592 20.1167 28.0841 20.0151 27.6313 19.812C27.1828 19.6047 26.8104 19.3211 26.5142 18.9614C26.2222 18.5975 26.0254 18.1828 25.9238 17.7173L25.9111 17.6475H27.5171L27.5425 17.7109C27.6229 17.9225 27.7371 18.1087 27.8853 18.2695C28.0376 18.4303 28.2196 18.5552 28.4312 18.644C28.647 18.7287 28.8882 18.771 29.1548 18.771C29.6372 18.771 30.0308 18.6292 30.3354 18.3457C30.6444 18.0579 30.875 17.675 31.0273 17.1968C31.1839 16.7144 31.2728 16.1812 31.2939 15.5972C31.2982 15.5337 31.3003 15.4723 31.3003 15.4131C31.3003 15.3496 31.3003 15.2882 31.3003 15.229L31.0146 13.6992C31.0146 13.3522 30.9342 13.0369 30.7734 12.7534C30.6126 12.4699 30.3947 12.2456 30.1196 12.0806C29.8488 11.9155 29.542 11.833 29.1992 11.833C28.8691 11.833 28.5666 11.9134 28.2915 12.0742C28.0164 12.235 27.7964 12.4551 27.6313 12.7344C27.4663 13.0094 27.3838 13.3184 27.3838 13.6611V13.6738C27.3838 14.0293 27.4621 14.3446 27.6187 14.6196C27.7752 14.8905 27.9889 15.1042 28.2598 15.2607C28.5306 15.4173 28.8395 15.4956 29.1865 15.4956C29.5335 15.4956 29.8446 15.4194 30.1196 15.2671C30.3947 15.1147 30.6126 14.9032 30.7734 14.6323C30.9342 14.3615 31.0146 14.0547 31.0146 13.7119V13.6992H31.3955V15.3877H31.1733C31.0633 15.6289 30.9004 15.8532 30.6846 16.0605C30.4688 16.2679 30.2021 16.4351 29.8848 16.562C29.5716 16.689 29.2035 16.7524 28.7803 16.7524C28.1963 16.7524 27.68 16.6213 27.2314 16.3589C26.7829 16.0965 26.4295 15.7368 26.1714 15.2798C25.9175 14.8228 25.7905 14.3065 25.7905 13.731V13.7183C25.7905 13.0962 25.9344 12.5439 26.2222 12.0615C26.5142 11.5749 26.9162 11.194 27.4282 10.9189C27.9445 10.6396 28.5306 10.5 29.1865 10.5Z" fill="black"/>
<path d="M42.4888 9.35938C43.2837 9.35938 43.8853 9.89648 44.1162 10.6055C45.4858 11.0996 46.082 12.4746 46.1895 14.3867C46.2754 15.1494 46.3613 15.9282 46.7534 16.2881C47.2422 16.7446 47.7471 17.2334 47.7471 17.8188C47.7471 18.0552 47.6611 18.2485 47.5161 18.3828L40.1362 10.9976C40.3457 10.8311 40.5874 10.7021 40.856 10.6055C41.0869 9.89648 41.6938 9.35938 42.4888 9.35938ZM37.4453 10.541C37.2788 10.3745 37.2788 10.0845 37.4453 9.91797C37.6172 9.74609 37.9019 9.75146 38.0684 9.91797L47.8975 19.7417C48.0693 19.9136 48.064 20.1875 47.8975 20.3594C47.731 20.5312 47.4517 20.5312 47.2798 20.3594L37.4453 10.541ZM38.1758 18.6406C37.5957 18.6406 37.2305 18.3076 37.2305 17.8188C37.2305 17.2334 37.73 16.7446 38.2241 16.2881C38.6162 15.9282 38.6968 15.1494 38.7881 14.3867C38.8042 13.8818 38.8579 13.4199 38.9492 13.0117L44.5781 18.6406H38.1758ZM42.4888 20.8911C41.5112 20.8911 40.7969 20.2036 40.7271 19.4033H44.2451C44.1753 20.2036 43.4663 20.8911 42.4888 20.8911Z" fill="black"/>
</svg>
